<?xml version="1.0" encoding="utf-8"?>
<!-- Generator: Adobe Illustrator 16.0.0, SVG Export Plug-In . SVG Version: 6.00 Build 0)  -->
<!DOCTYPE svg PUBLIC "-//W3C//DTD SVG 1.1//EN" "http://www.w3.org/Graphics/SVG/1.1/DTD/svg11.dtd">
<svg version="1.1" id="Camada_1" xmlns="http://www.w3.org/2000/svg" xmlns:xlink="http://www.w3.org/1999/xlink" x="0px" y="0px"
	 width="594.107px" height="273.667px" viewBox="0 0 594.107 273.667" enable-background="new 0 0 594.107 273.667"
	 xml:space="preserve">
<path fill-rule="evenodd" clip-rule="evenodd" fill="#A9C337" d="M222.603,180.279c-0.301,1.164-0.455,1.266-0.049,0.049
	L222.603,180.279z M227.108,149.602c0,12.959-3.188,26.02-4.506,30.677c17.972-21.363,26.527-48.95,24.349-76.337
	c-17.616-32.904-52.341-55.278-92.23-55.278c-1.367,0-2.684,0.049-4,0.101C194.813,61.116,227.108,101.561,227.108,149.602z
	 M131.232,253.932h0.304c1.518-0.151,2.986-0.304,4.506-0.507C134.421,253.627,132.851,253.781,131.232,253.932z"/>
<path fill-rule="evenodd" clip-rule="evenodd" fill="#F7D309" d="M235.614,64.053c-19.944-26.678-50.876-44.65-86.056-47.23
	c0.151,0,0.252,0.049,0.405,0.049c-53.711,4.457-95.876,49.457-95.876,104.332c0,1.063,0,2.175,0.05,3.238
	c12.554-43.735,52.799-75.778,100.585-75.778c39.889,0,74.614,22.374,92.23,55.278c-1.112-13.668-4.859-27.286-11.491-40.091
	C235.513,63.899,235.562,63.951,235.614,64.053z"/>
<path fill-rule="evenodd" clip-rule="evenodd" fill="#008EC7" d="M61.223,46.842l-0.252,0.354c-0.255,0.203-0.507,0.455-0.759,0.657
	l0.304-0.353L61.223,46.842z M140.598,16.519c-30.627,0-58.568,11.592-79.627,30.677c-26.628,33.257-31.488,81.753-8.352,120.023
	l0.151,0.252l0.203,0.356l0.252,0.354l0.405,0.657c12.352,19.692,30.271,33.816,50.471,41.661
	c-30.02-18.375-50.013-51.481-50.013-89.294c0-54.875,42.165-99.875,95.876-104.332C146.874,16.62,143.737,16.519,140.598,16.519z"
	/>
<path fill-rule="evenodd" clip-rule="evenodd" fill="#EC1B23" d="M43.051,81.011c-8.201,9.719-15.238,20.956-19.49,33.257
	c-5.265,28.146-0.354,58.315,16.098,84.486c20.703,32.904,55.278,52.443,91.321,55.379c-0.101-0.049-0.153-0.049-0.254-0.049l0,0
	c43.688-3.646,79.679-33.512,92.131-74.061l0.455-0.556c-6.936,8.352-15.288,15.794-25.056,21.87
	c-49.002,30.674-113.596,15.945-144.322-32.854c-17.211-27.387-20.095-59.683-10.631-88.233
	C43.201,80.504,43.1,80.756,43.051,81.011z"/>
<path fill-rule="evenodd" clip-rule="evenodd" fill="#F05F21" d="M130.068,254.085c3.139,0.252,6.278,0.405,9.415,0.405
	c12.707,0,24.957-1.569,36.396-5.215c9.264-2.986,18.276-7.138,26.831-12.502c56.24-35.235,73.299-109.14,38.067-165.127
	c-1.671-2.684-3.443-5.265-5.317-7.795c19.895,38.42,14.074,84.486-12.907,116.478C210.049,220.877,173.704,250.439,130.068,254.085
	z"/>
<path fill-rule="evenodd" clip-rule="evenodd" fill="#EF4D22" d="M44.316,65.724C34.241,79.946,26.547,96.499,23.511,114.37
	c4.251-12.302,11.289-23.64,19.539-33.358c3.898-12.403,10.226-24.097,18.577-34.424C55.098,52.408,49.326,58.837,44.316,65.724z"/>
<path fill-rule="evenodd" clip-rule="evenodd" d="M318.583,132.391l6.429,0.049c8.706,0,16.249-1.063,22.525-3.238
	c6.328-2.128,11.491-5.114,15.592-8.809c4.101-3.747,7.086-8.1,9.009-13.11c1.874-4.961,2.887-10.327,2.887-16.046
	c0-5.366-0.912-10.226-2.684-14.581c-1.721-4.402-4.454-8.048-8.098-11.034c-3.698-3.038-8.303-5.366-13.872-6.988
	c-5.517-1.668-12.047-2.479-19.539-2.479c-3.139,0-6.328,0.049-9.617,0.102c-3.292,0.101-6.632,0.203-9.873,0.304
	c-3.29,0.151-6.48,0.252-9.568,0.455l-8.604,0.455v122.201h25.461V69.569c3.391-0.455,6.681-0.709,9.82-0.709
	c3.189,0,6.076,0.507,8.656,1.419c2.583,0.91,4.758,2.329,6.582,4.251c1.822,1.923,3.238,4.405,4.301,7.391
	c1.013,3.038,1.52,6.631,1.52,10.782c0,5.519-0.608,10.075-1.772,13.668c-1.266,3.544-2.937,6.429-5.062,8.607
	c-2.125,2.125-4.657,3.796-7.593,4.909c-2.884,1.115-6.023,2.024-9.313,2.786l-7.188,0.556V132.391z"/>
<path fill-rule="evenodd" clip-rule="evenodd" d="M405.803,69.115c0.605-0.052,1.164-0.102,1.821-0.153
	c1.266-0.049,2.43-0.102,3.342-0.102c3.948,0,7.44,0.356,10.376,1.115c2.937,0.759,5.468,1.975,7.492,3.644
	c1.975,1.671,3.545,3.898,4.556,6.733c1.013,2.786,1.569,6.227,1.569,10.278c0,3.695-0.252,6.733-0.709,9.111
	c-0.455,2.43-1.063,4.454-1.871,6.023c-0.762,1.569-1.671,2.835-2.633,3.747c-1.013,0.91-1.975,1.671-2.936,2.276
	c-1.923,1.266-4.556,2.279-7.897,3.09c-3.342,0.808-6.834,1.214-10.428,1.214h-1.315c0,0,17.97,36.854,20.5,41.105
	c2.581,4.303,4.961,7.897,7.188,10.833c2.227,2.884,4.405,5.265,6.53,7.035c2.076,1.772,4.251,3.139,6.429,4.051
	c2.227,0.909,4.555,1.569,7.037,1.874c2.531,0.354,5.314,0.504,8.352,0.504c3.188,0,6.024-0.203,8.607-0.556
	c2.531-0.405,4.807-0.86,6.782-1.416v-7.139h-0.811c-3.898,0-7.542-1.216-10.935-3.747c-3.391-2.531-6.681-5.972-9.921-10.324
	c-3.238-4.303-6.531-9.417-9.769-15.187c-3.29-5.771-6.733-11.948-10.379-18.479c3.038-1.315,5.974-2.937,8.81-4.86
	c2.884-1.923,5.366-4.251,7.541-7.086c2.178-2.835,3.95-6.125,5.265-9.921c1.367-3.849,2.027-8.25,2.027-13.313
	c0-11.441-3.898-19.843-11.644-25.209c-7.796-5.418-19.186-8.1-34.271-8.1c-2.936,0-5.972,0.049-9.163,0.102
	c-3.238,0.101-6.377,0.203-9.516,0.304c-3.139,0.151-6.125,0.252-9.062,0.455l-8.201,0.455v122.201h25.464v-0.102h-0.153v-47.937
	v-20.503V68.961h1.926V69.115z"/>
<path fill-rule="evenodd" clip-rule="evenodd" d="M540.404,165.092c-1.57,0.405-3.493,0.759-5.67,1.112
	c-2.227,0.356-4.607,0.66-7.086,0.964c-2.531,0.354-5.114,0.556-7.694,0.759c-2.633,0.151-5.063,0.203-7.391,0.203
	c-9.264,0-16.046-4.303-20.3-12.959c-4.301-8.607-6.429-21.007-6.429-37.259c0-3.997,0.102-8.149,0.356-12.4
	c0.203-4.202,0.657-8.149,1.315-11.845c0.66-3.695,1.52-6.936,2.632-9.771c1.164-2.884,2.632-4.96,4.506-6.328
	c3.342-2.43,7.037-3.999,10.984-4.708c4-0.658,8.251-1.011,12.757-1.011c2.734,0,5.821,0.203,9.313,0.556
	c3.495,0.353,6.988,0.759,10.48,1.265c3.492,0.507,6.834,1.063,9.971,1.721c3.191,0.66,5.824,1.317,7.949,1.925l4.303-18.427
	c-1.723-0.507-3.95-0.912-6.631-1.317c-2.685-0.405-5.52-0.707-8.505-1.063c-2.986-0.354-6.024-0.556-9.111-0.759
	c-3.038-0.151-5.824-0.252-8.253-0.252c-10.023,0-19.134,1.416-27.436,4.301c-8.303,2.835-15.438,6.886-21.361,12.2
	c-5.974,5.366-10.582,11.795-13.819,19.389c-3.292,7.593-4.912,16.2-4.912,25.716c0,9.568,0.961,18.273,2.835,26.02
	c1.923,7.793,4.961,14.526,9.111,20.147c4.202,5.619,9.62,9.922,16.301,12.957c6.632,3.09,14.781,4.607,24.349,4.607
	c4.758,0,9.618-0.354,14.68-0.912c5.062-0.658,9.974-1.466,14.731-2.43c4.758-1.011,9.163-2.126,13.211-3.339
	c4.049-1.164,7.492-2.329,10.275-3.544V120.9h-31.992v10.376l6.531,0.507V165.092z"/>
<path fill-rule="evenodd" clip-rule="evenodd" d="M301.827,202.957c2.632-0.608,4.301-2.986,4.301-6.733
	c0-1.975-0.605-3.846-1.518-5.063c-1.266-0.912-3.188-1.265-6.226-1.265c-1.671,0-3.594,0.101-4.912,0.252v24.097h1.723v-10.883
	h3.339c2.988,0,4.404,1.671,5.114,5.062c0.608,3.038,1.063,5.164,1.417,5.821h1.874c-0.507-0.912-0.961-2.783-1.671-6.429
	c-0.504-2.682-1.57-4.454-3.441-4.81V202.957z M295.195,202.502v-11.441c0.556-0.151,1.671-0.304,3.188-0.304
	c2.884,0,6.023,1.164,6.023,5.821c0,3.594-2.276,5.925-5.771,5.925H295.195z"/>
<path fill-rule="evenodd" clip-rule="evenodd" d="M311.444,192.022c0-0.759-0.556-1.367-1.419-1.367
	c-0.808,0-1.416,0.657-1.416,1.367c0,0.811,0.556,1.468,1.367,1.468C310.836,193.49,311.444,192.934,311.444,192.022z
	 M311.393,196.577h-1.721v17.668h1.721V196.577z"/>
<path fill-rule="evenodd" clip-rule="evenodd" d="M326.226,212.12c-0.912,0.455-2.178,1.063-4.101,1.063
	c-3.796,0-6.478-3.038-6.478-7.695c0-4.15,2.227-7.795,6.631-7.795c1.822,0,3.087,0.556,3.898,1.013l0.556-1.367
	c-0.608-0.203-2.227-0.507-4.303-0.507c-5.164,0-8.505,3.139-8.505,8.807c0,5.468,2.988,8.404,7.897,8.404
	c2.328,0,4.101-0.405,4.859-0.556L326.226,212.12z"/>
<path fill-rule="evenodd" clip-rule="evenodd" d="M342.729,203.362c0-6.076-3.747-6.53-5.467-6.53c-2.279,0-4.457,0.709-5.366,2.531
	h-0.102v-10.732h-1.671v25.615h1.671v-10.985c0-0.709,0.05-1.164,0.252-1.723c0.608-2.125,2.531-3.846,4.708-3.846
	c3.188,0,4.251,2.783,4.251,5.922v10.631h1.723V203.362z"/>
<path fill-rule="evenodd" clip-rule="evenodd" d="M362.216,201.842c2.43-0.556,3.95-3.087,3.95-5.922
	c0-3.846-1.772-6.023-7.848-6.023c-1.923,0-3.643,0.101-4.808,0.252v24.097c0.809-0.304,2.175-0.203,4.15-0.203
	c3.646,0,6.328-0.353,7.946-1.569c1.317-1.569,1.521-3.542,1.521-4.708c0-3.896-2.685-5.566-4.912-5.871V201.842z M355.231,201.538
	v-10.478c0.556-0.203,1.468-0.304,3.087-0.304c3.594,0,6.125,1.367,6.125,5.265c0,3.139-2.276,5.517-5.769,5.517H355.231z
	 M355.231,202.401h2.986c3.695,0,7.19,1.468,7.19,5.364c0,4.051-3.394,5.418-7.24,5.418c-1.216,0-2.227-0.052-2.936-0.203V202.401z"
	/>
<path fill-rule="evenodd" clip-rule="evenodd" d="M382.314,196.577h-1.671v11.188c0,3.495-2.783,5.418-5.01,5.418
	c-3.139,0-4.202-2.685-4.202-6.481v-10.125h-1.723v10.53c0,6.328,3.139,6.936,5.418,6.936c2.936,0,4.758-1.013,5.569-2.58h0.099
	l0.102,2.783h1.621c-0.101-1.318-0.203-2.734-0.203-4.405V196.577z"/>
<path fill-rule="evenodd" clip-rule="evenodd" d="M395.071,197.388c-0.811-0.304-2.178-0.556-3.849-0.556
	c-3.542,0-5.314,1.468-5.314,4.15c0,2.178,1.367,3.797,4.251,4.961c2.531,1.013,3.646,2.076,3.646,3.95
	c0,1.822-1.317,3.29-3.999,3.29c-1.619,0-2.986-0.658-3.748-1.266l-0.657,1.468c1.063,0.405,2.481,0.657,4.251,0.657
	c3.646,0,5.873-1.164,5.873-4.454c0-2.685-1.468-4.153-4.353-5.317c-2.38-1.011-3.594-1.822-3.594-3.594
	c0-1.619,1.213-2.986,3.391-2.986c1.72,0,2.884,0.657,3.443,1.063L395.071,197.388z"/>
<path fill-rule="evenodd" clip-rule="evenodd" d="M399.878,192.022c0-0.759-0.556-1.367-1.417-1.367
	c-0.811,0-1.468,0.657-1.468,1.367c0,0.811,0.608,1.468,1.419,1.468C399.272,193.49,399.878,192.934,399.878,192.022z
	 M399.777,196.577h-1.668v17.668h1.668V196.577z"/>
<path fill-rule="evenodd" clip-rule="evenodd" d="M416.99,203.412c0-6.073-3.797-6.58-5.52-6.58c-2.632,0-4.605,0.808-5.517,2.682
	h-0.049l-0.101-2.937h-1.57c0.049,1.367,0.102,2.633,0.102,4.304v13.365h1.72v-10.935c0-2.986,2.125-5.618,4.859-5.618
	c3.29,0,4.353,2.835,4.353,5.974v10.579h1.723V203.412z"/>
<path fill-rule="evenodd" clip-rule="evenodd" d="M432.936,212.169c-0.962,0.507-2.329,1.014-4.86,1.014
	c-3.646,0-6.834-2.178-6.834-7.848H434.1c0-0.2,0.049-0.354,0.049-0.606c-0.049-2.887-1.011-7.897-6.73-7.897
	c-4.81,0-7.897,3.29-7.897,8.908c0,5.316,2.885,8.302,8.251,8.302c3.087,0,4.909-0.353,5.569-0.608L432.936,212.169z
	 M421.343,204.475c0.304-2.986,1.975-6.782,5.873-6.782c4.15,0,5.213,3.947,5.213,6.782H421.343z"/>
<path fill-rule="evenodd" clip-rule="evenodd" d="M444.881,197.388c-0.811-0.304-2.175-0.556-3.846-0.556
	c-3.493,0-5.317,1.468-5.317,4.15c0,2.178,1.367,3.797,4.254,4.961c2.581,1.013,3.644,2.076,3.644,3.95c0,1.822-1.266,3.29-4,3.29
	c-1.619,0-2.936-0.658-3.745-1.266l-0.66,1.468c1.065,0.405,2.531,0.657,4.303,0.657c3.594,0,5.821-1.164,5.821-4.454
	c0-2.685-1.416-4.153-4.301-5.317c-2.43-1.011-3.594-1.822-3.594-3.594c0-1.619,1.164-2.986,3.391-2.986
	c1.72,0,2.885,0.657,3.391,1.063L444.881,197.388z"/>
<path fill-rule="evenodd" clip-rule="evenodd" d="M456.12,197.388c-0.86-0.304-2.177-0.556-3.848-0.556
	c-3.542,0-5.366,1.468-5.366,4.15c0,2.178,1.367,3.797,4.303,4.961c2.531,1.013,3.646,2.076,3.646,3.95
	c0,1.822-1.317,3.29-4.051,3.29c-1.619,0-2.937-0.658-3.695-1.266l-0.658,1.468c1.063,0.405,2.482,0.657,4.251,0.657
	c3.646,0,5.873-1.164,5.873-4.454c0-2.685-1.468-4.153-4.353-5.317c-2.43-1.011-3.594-1.822-3.594-3.594
	c0-1.619,1.164-2.986,3.391-2.986c1.72,0,2.885,0.657,3.441,1.063L456.12,197.388z"/>
<path fill-rule="evenodd" clip-rule="evenodd" d="M476.215,190.453c-0.707-0.252-2.479-0.556-4.808-0.556
	c-4.303,0-7.037,1.821-7.037,5.517c0,3.443,2.177,5.621,6.075,6.988c3.441,1.416,4.859,3.035,4.859,5.821
	c0,2.937-2.128,4.961-5.771,4.961c-2.024,0-3.898-0.658-5.062-1.622l-0.657,1.671c1.112,0.458,3.391,0.811,5.566,0.811
	c5.215,0,7.645-2.227,7.645-6.023c0-3.695-1.772-5.67-5.873-7.391c-3.44-1.468-5.062-2.786-5.062-5.519
	c0-1.973,1.367-4.353,5.215-4.353c2.125,0,3.695,0.658,4.303,1.164L476.215,190.453z"/>
<path fill-rule="evenodd" clip-rule="evenodd" d="M490.188,196.577l-3.897,10.886c-0.458,1.367-0.912,2.682-1.216,3.745h-0.049
	c-0.356-1.063-0.759-2.479-1.216-3.695l-4.202-10.935h-2.074l6.125,15.847c0.151,0.354,0.203,0.605,0.203,0.759
	c0,0.507-1.772,5.213-5.821,6.733l0.605,1.671c4.457-1.52,6.429-6.328,8.81-12.504l4.808-12.505H490.188z"/>
<path fill-rule="evenodd" clip-rule="evenodd" d="M502.945,197.388c-0.811-0.304-2.125-0.556-3.849-0.556
	c-3.492,0-5.314,1.468-5.314,4.15c0,2.178,1.367,3.797,4.251,4.961c2.583,1.013,3.646,2.076,3.646,3.95
	c0,1.822-1.266,3.29-3.999,3.29c-1.622,0-2.937-0.658-3.747-1.266l-0.658,1.468c1.063,0.405,2.531,0.657,4.303,0.657
	c3.644,0,5.821-1.164,5.821-4.454c0-2.685-1.468-4.153-4.304-5.317c-2.43-1.011-3.594-1.822-3.594-3.594
	c0-1.619,1.164-2.986,3.391-2.986c1.723,0,2.887,0.657,3.391,1.063L502.945,197.388z"/>
<path fill-rule="evenodd" clip-rule="evenodd" d="M505.982,196.832h-2.786v0.86h2.786v11.39c0,2.835,0.455,4.96,3.846,4.96
	c1.014,0,1.822-0.101,2.38-0.203l-0.203-0.961c-0.458,0.151-1.014,0.304-1.874,0.304c-1.772,0-2.43-1.468-2.43-3.797v-11.693h4.706
	v-0.86h-4.706v-3.849l-1.721,0.709V196.832z"/>
<path fill-rule="evenodd" clip-rule="evenodd" d="M553.919,203.614c0-6.226-3.544-6.782-5.467-6.782
	c-3.29,0-5.062,1.063-5.871,2.937h-0.052c-0.657-2.178-2.378-2.937-4.81-2.937c-2.934,0-4.605,0.759-5.72,2.632h-0.049l-0.101-2.887
	h-1.57c0.049,1.367,0.102,2.633,0.102,4.304v13.365h1.72v-10.883c0-3.191,2.43-5.67,4.961-5.67c2.835,0,4.253,2.279,4.253,5.416
	v11.138h1.721v-11.39c0-2.684,2.125-5.163,4.758-5.163c2.986,0,4.405,2.38,4.405,6.177v10.376h1.72V203.614z"/>
<path fill-rule="evenodd" clip-rule="evenodd" d="M565.663,197.388c-0.808-0.304-2.125-0.556-3.846-0.556
	c-3.493,0-5.314,1.468-5.314,4.15c0,2.178,1.367,3.797,4.251,4.961c2.581,1.013,3.644,2.076,3.644,3.95
	c0,1.822-1.266,3.29-3.997,3.29c-1.622,0-2.937-0.658-3.747-1.266l-0.658,1.468c1.063,0.405,2.531,0.657,4.304,0.657
	c3.643,0,5.821-1.164,5.821-4.454c0-2.685-1.419-4.153-4.303-5.317c-2.43-1.011-3.594-1.822-3.594-3.594
	c0-1.619,1.165-2.986,3.392-2.986c1.72,0,2.884,0.657,3.391,1.063L565.663,197.388z"/>
<path fill-rule="evenodd" clip-rule="evenodd" d="M526.179,212.169c-0.961,0.507-2.328,1.014-4.859,1.014
	c-3.646,0-6.834-2.178-6.834-7.848h12.858c0-0.2,0.052-0.354,0.052-0.606c-0.052-2.887-1.014-7.897-6.733-7.897
	c-4.81,0-7.897,3.29-7.897,8.908c0,5.316,2.884,8.302,8.25,8.302c3.087,0,4.912-0.353,5.569-0.608L526.179,212.169z
	 M514.587,204.475c0.304-2.986,2.024-6.782,5.873-6.782c4.15,0,5.265,3.947,5.213,6.782H514.587z"/>
</svg>
