<?xml version="1.0" encoding="iso-8859-1"?>
<!-- Generator: Adobe Illustrator 18.0.0, SVG Export Plug-In . SVG Version: 6.00 Build 0)  -->
<!DOCTYPE svg PUBLIC "-//W3C//DTD SVG 1.1//EN" "http://www.w3.org/Graphics/SVG/1.1/DTD/svg11.dtd">
<svg version="1.1" id="Capa_1" xmlns="http://www.w3.org/2000/svg" xmlns:xlink="http://www.w3.org/1999/xlink" x="0px" y="0px"
	 viewBox="0 0 320 320" style="enable-background:new 0 0 320 320;" xml:space="preserve">
<g>
	<path d="M316.943,112.925c-42.323-40.833-98.058-63.323-156.933-63.329c-0.006,0-0.006,0-0.011,0s-0.007,0-0.011,0
		C101.115,49.602,45.381,72.091,3.057,112.925c-3.975,3.834-4.088,10.165-0.253,14.14c1.962,2.034,4.578,3.057,7.198,3.057
		c2.499,0,5.002-0.932,6.942-2.804C55.523,90.098,106.329,69.599,160,69.596c53.672,0.003,104.479,20.502,143.057,57.722
		c3.974,3.836,10.306,3.723,14.14-0.253C321.031,123.09,320.918,116.759,316.943,112.925z"/>
	<path d="M159.993,121.99c-69.468,0-121.512,47.089-140.663,67.334c-3.647,3.855-3.647,9.888,0,13.744
		c19.149,20.246,71.19,67.336,140.663,67.336c69.477,0,121.516-47.091,140.665-67.337c3.646-3.855,3.646-9.888-0.001-13.743
		C281.507,169.079,229.465,121.99,159.993,121.99z M95.923,157.247c-6.818,11.769-10.657,25.521-10.657,40.024
		c0,13.29,3.201,25.964,9.022,37.079c-23.463-11.499-41.941-26.876-53.621-38.154C52.618,184.658,71.681,168.824,95.923,157.247z
		 M134.345,247.945c-17.961-9.814-29.079-29.126-29.079-50.674c0-24.608,14.616-46.235,36.422-54.013
		c5.943-0.81,12.045-1.268,18.305-1.268c4.676,0,9.261,0.263,13.763,0.724c22.438,7.143,38.075,29.508,38.075,54.557
		c0,21.938-11.9,41.957-30.423,51.408c-6.916,1.101-14.057,1.725-21.415,1.725C151.125,250.404,142.564,249.511,134.345,247.945z
		 M221.662,236.267c6.521-11.613,10.169-25.025,10.169-38.995c0-15.064-4.08-29.438-11.824-41.9
		c26.177,11.691,46.704,28.649,59.314,40.824C266.979,208.115,247.048,224.609,221.662,236.267z"/>
	<path d="M183.902,197.272c-13.995,0-25.354-11.342-25.354-25.313c-13.996,0-25.352,11.341-25.352,25.313
		c0,13.971,11.356,25.313,25.352,25.313C172.546,222.584,183.902,211.242,183.902,197.272z"/>
</g>
<g>
</g>
<g>
</g>
<g>
</g>
<g>
</g>
<g>
</g>
<g>
</g>
<g>
</g>
<g>
</g>
<g>
</g>
<g>
</g>
<g>
</g>
<g>
</g>
<g>
</g>
<g>
</g>
<g>
</g>
</svg>
