<?xml version="1.0" encoding="iso-8859-1"?>
<!-- Generator: Adobe Illustrator 19.0.0, SVG Export Plug-In . SVG Version: 6.00 Build 0)  -->
<svg version="1.1" id="Layer_1" xmlns="http://www.w3.org/2000/svg" xmlns:xlink="http://www.w3.org/1999/xlink" x="0px" y="0px"
	 viewBox="0 0 512 512" style="enable-background:new 0 0 512 512;" xml:space="preserve">
<path style="fill:#FFA14A;" d="M41.914,64h428.169C493.136,64,512,82.861,512,105.914v300.169C512,429.139,493.136,448,470.083,448
	H41.914C18.861,448,0,429.139,0,406.083V105.914C0,82.861,18.861,64,41.914,64L41.914,64z"/>
<path style="fill:#F2702F;" d="M512,256v150.083C512,429.139,493.136,448,470.083,448H41.914C18.861,448,0,429.139,0,406.083V256
	H512z"/>
<path style="fill:#FFD194;" d="M139.543,167.525c22.743,0,41.179,18.436,41.179,41.179c0,22.744-18.436,41.181-41.179,41.181
	c-22.745,0-41.181-18.438-41.181-41.181C98.361,185.962,116.798,167.525,139.543,167.525L139.543,167.525z"/>
<path style="fill:#415E5C;" d="M79.553,344.477v-47.298c0-26.011,21.281-47.295,47.292-47.295h25.393
	c26.011,0,47.295,21.284,47.295,47.295v47.298H79.553L79.553,344.477z"/>
<path style="fill:#B21100;" d="M132.066,85.097L143.238,64h22.67l-16.137,30.473c-1.798,3.395-5.27,5.331-8.861,5.331
	c-1.581,0-3.184-0.375-4.679-1.166C131.341,96.048,129.477,89.986,132.066,85.097z M277.829,98.638
	c1.495,0.791,3.099,1.166,4.679,1.166c3.592,0,7.063-1.937,8.861-5.331L307.506,64h-22.67l-11.172,21.097
	C271.075,89.986,272.939,96.048,277.829,98.638z M207.029,98.638c1.495,0.791,3.098,1.166,4.679,1.166
	c3.592,0,7.064-1.938,8.862-5.333L236.705,64h-22.67l-11.171,21.098C200.275,89.987,202.141,96.049,207.029,98.638z
	 M446.565,413.361c-4.892-2.59-10.952-0.723-13.541,4.166L416.89,448h22.67l11.171-21.098
	C453.32,422.013,451.455,415.951,446.565,413.361z M65.434,98.638c1.495,0.791,3.099,1.166,4.679,1.166
	c3.592,0,7.063-1.937,8.861-5.331L95.112,64h-22.67L61.269,85.097C58.68,89.986,60.545,96.048,65.434,98.638z M348.629,98.638
	c1.495,0.791,3.099,1.166,4.679,1.166c3.592,0,7.063-1.937,8.861-5.331L378.306,64h-22.671l-11.172,21.097
	C341.875,89.986,343.739,96.048,348.629,98.638z M234.171,413.362c-4.891-2.59-10.951-0.725-13.541,4.165L204.494,448h22.67
	l11.172-21.098C240.925,422.014,239.061,415.951,234.171,413.362z M92.572,413.362c-4.891-2.59-10.951-0.725-13.541,4.165
	L62.895,448h22.67l11.172-21.098C99.326,422.014,97.461,415.951,92.572,413.362z M375.769,413.362
	c-4.891-2.59-10.951-0.725-13.541,4.165L346.092,448h22.671l11.172-21.098C382.523,422.014,380.659,415.951,375.769,413.362z
	 M419.428,98.638c1.495,0.791,3.099,1.166,4.679,1.166c3.592,0,7.063-1.937,8.861-5.331L449.105,64h-22.671l-11.172,21.097
	C412.674,89.986,414.539,96.048,419.428,98.638z M163.371,413.362c-4.891-2.59-10.951-0.725-13.541,4.165L133.694,448h22.67
	l11.172-21.098C170.125,422.014,168.261,415.951,163.371,413.362z M304.971,413.362c-4.892-2.59-10.951-0.725-13.541,4.165
	L275.292,448h22.67l11.173-21.098C311.725,422.014,309.86,415.951,304.971,413.362z"/>
<path style="fill:#284848;" d="M271.974,198.54c0-5.533,4.484-10.017,10.017-10.017h70.076c5.533,0,10.017,4.484,10.017,10.017
	s-4.484,10.017-10.017,10.017h-70.076C276.459,208.558,271.974,204.073,271.974,198.54z M281.992,271.281H434.66
	c5.533,0,10.017-4.484,10.017-10.017c0-5.533-4.484-10.017-10.017-10.017H281.992c-5.533,0-10.017,4.484-10.017,10.017
	C271.974,266.797,276.459,271.281,281.992,271.281z M434.66,302.748H281.992c-5.533,0-10.017,4.484-10.017,10.017
	c0,5.533,4.484,10.017,10.017,10.017H434.66c5.533,0,10.017-4.484,10.017-10.017C444.678,307.232,440.192,302.748,434.66,302.748z
	 M152.238,249.884h-12.695v94.593h59.991v-47.298C199.533,271.167,178.249,249.884,152.238,249.884z"/>
<g>
</g>
<g>
</g>
<g>
</g>
<g>
</g>
<g>
</g>
<g>
</g>
<g>
</g>
<g>
</g>
<g>
</g>
<g>
</g>
<g>
</g>
<g>
</g>
<g>
</g>
<g>
</g>
<g>
</g>
</svg>
